# xmcd
#
# Track frame offsets: 
#        150
#        15498
#        29764
#        48755
#        63476
#        79409
#
# Disc length: 1261 seconds
#
# Revision: 0
# Processed by: cddbd v1.5.2PL0 Copyright (c) Steve Scherf et al.
# Submitted via: ExactAudioCopy v1.0b6
#
DISCID=4704eb06
DTITLE=Fellowship Kids - Lift (2015)
DYEAR=2015
DGENRE=Children Praise
TTITLE0=God On High
TTITLE1=Lives Of Praise
TTITLE2=Our Great God
TTITLE3=Live To Give
TTITLE4=Alive In Us
TTITLE5=Child Of God
EXTD=
EXTT0=
EXTT1=
EXTT2=
EXTT3=
EXTT4=
EXTT5=
PLAYORDER=
